<svg width="524" height="65" viewBox="0 0 524 65" fill="none" xmlns="http://www.w3.org/2000/svg">
<path d="M138.855 43.6797C139.409 43.6797 139.799 43.8099 140.027 44.0703C140.271 44.3145 140.394 44.7376 140.394 45.3398C140.394 45.9421 140.271 46.3734 140.027 46.6338C139.799 46.8779 139.409 47 138.855 47H130.945C130.392 47 129.993 46.8779 129.749 46.6338C129.521 46.3734 129.407 45.9421 129.407 45.3398C129.407 44.7376 129.521 44.3145 129.749 44.0703C129.993 43.8099 130.392 43.6797 130.945 43.6797H132.703L126.575 36.4043L122.132 40.3105V43.6797H123.914C124.467 43.6797 124.858 43.8099 125.086 44.0703C125.33 44.3145 125.452 44.7376 125.452 45.3398C125.452 45.9421 125.33 46.3734 125.086 46.6338C124.858 46.8779 124.467 47 123.914 47H115.76C115.206 47 114.808 46.8779 114.563 46.6338C114.336 46.3734 114.222 45.9421 114.222 45.3398C114.222 44.7376 114.336 44.3145 114.563 44.0703C114.808 43.8099 115.206 43.6797 115.76 43.6797H118.47V18.2891H115.271C114.718 18.2891 114.319 18.167 114.075 17.9229C113.847 17.6624 113.733 17.2311 113.733 16.6289C113.733 16.0267 113.847 15.6035 114.075 15.3594C114.319 15.099 114.718 14.9688 115.271 14.9688H120.594C121.147 14.9688 121.538 15.099 121.766 15.3594C122.01 15.6035 122.132 16.0267 122.132 16.6289V35.9648L131.434 27.7617H129.7C129.147 27.7617 128.748 27.6396 128.504 27.3955C128.276 27.1351 128.162 26.7038 128.162 26.1016C128.162 25.4993 128.276 25.0762 128.504 24.832C128.748 24.5716 129.147 24.4414 129.7 24.4414H137.854C138.408 24.4414 138.799 24.5716 139.026 24.832C139.271 25.0762 139.393 25.4993 139.393 26.1016C139.393 26.7038 139.271 27.1351 139.026 27.3955C138.799 27.6396 138.408 27.7617 137.854 27.7617H136.414L129.236 34.085L137.439 43.6797H138.855ZM157.166 23.9043C160.226 23.9043 162.521 24.5879 164.051 25.9551C165.581 27.3223 166.346 29.3486 166.346 32.0342V41.751C166.346 43.0368 166.883 43.6797 167.957 43.6797H168.812C169.365 43.6797 169.756 43.8099 169.983 44.0703C170.228 44.3145 170.35 44.7376 170.35 45.3398C170.35 45.9421 170.228 46.3734 169.983 46.6338C169.756 46.8779 169.365 47 168.812 47H167.249C166.191 47 165.28 46.7396 164.515 46.2188C163.766 45.6816 163.278 44.9004 163.05 43.875C161.715 45.0469 160.267 45.9502 158.704 46.585C157.158 47.2197 155.514 47.5371 153.772 47.5371C152.129 47.5371 150.672 47.2604 149.402 46.707C148.149 46.1374 147.164 45.3154 146.448 44.2412C145.732 43.167 145.374 41.8893 145.374 40.4082C145.374 37.8366 146.294 35.9404 148.133 34.7197C149.972 33.4827 152.348 32.8643 155.262 32.8643C157.85 32.8643 160.324 33.2793 162.684 34.1094V32.0342C162.684 30.4554 162.236 29.2998 161.341 28.5674C160.462 27.8187 159.038 27.4443 157.068 27.4443C155.848 27.4443 154.578 27.6152 153.26 27.957C151.941 28.2988 150.688 28.7708 149.5 29.373C149.223 29.5195 148.971 29.5928 148.743 29.5928C148.206 29.5928 147.758 29.2021 147.4 28.4209C147.221 28.0303 147.132 27.7048 147.132 27.4443C147.132 26.8747 147.433 26.4352 148.035 26.126C149.402 25.4098 150.867 24.8646 152.43 24.4902C154.008 24.0996 155.587 23.9043 157.166 23.9043ZM155.286 36.3066C153.414 36.3066 151.933 36.6322 150.843 37.2832C149.769 37.918 149.231 38.9352 149.231 40.335C149.231 41.5231 149.638 42.4508 150.452 43.1182C151.282 43.7692 152.438 44.0947 153.919 44.0947C157.158 44.0947 160.079 42.752 162.684 40.0664V37.4053C161.577 37.0472 160.389 36.7786 159.119 36.5996C157.85 36.4043 156.572 36.3066 155.286 36.3066ZM188.392 23.9043C190.41 23.9043 192.216 24.3844 193.812 25.3447C195.407 26.2887 196.66 27.6559 197.571 29.4463C198.483 31.2204 198.938 33.3118 198.938 35.7207C198.938 38.1296 198.483 40.2292 197.571 42.0195C196.66 43.7936 195.407 45.1608 193.812 46.1211C192.216 47.0651 190.41 47.5371 188.392 47.5371C185.332 47.5371 182.752 46.1943 180.652 43.5088V53.1523H184.852C185.405 53.1523 185.796 53.2744 186.023 53.5186C186.268 53.779 186.39 54.2103 186.39 54.8125C186.39 55.4147 186.268 55.8379 186.023 56.082C185.796 56.3424 185.405 56.4727 184.852 56.4727H174.5C173.947 56.4727 173.548 56.3424 173.304 56.082C173.076 55.8379 172.962 55.4147 172.962 54.8125C172.962 54.2103 173.076 53.779 173.304 53.5186C173.548 53.2744 173.947 53.1523 174.5 53.1523H176.99V27.7617H174.988C174.435 27.7617 174.036 27.6396 173.792 27.3955C173.564 27.1351 173.45 26.7038 173.45 26.1016C173.45 25.4993 173.564 25.0762 173.792 24.832C174.036 24.5716 174.435 24.4414 174.988 24.4414H178.87C179.424 24.4414 179.814 24.5716 180.042 24.832C180.286 25.0762 180.408 25.4993 180.408 26.1016V28.0547C181.434 26.7201 182.622 25.6947 183.973 24.9785C185.324 24.2624 186.797 23.9043 188.392 23.9043ZM188.147 27.5176C186.699 27.5176 185.405 27.8431 184.266 28.4941C183.143 29.1452 182.256 30.0892 181.604 31.3262C180.97 32.5632 180.652 34.028 180.652 35.7207C180.652 37.4134 180.97 38.8783 181.604 40.1152C182.256 41.3522 183.143 42.2962 184.266 42.9473C185.405 43.5983 186.699 43.9238 188.147 43.9238C189.596 43.9238 190.841 43.582 191.883 42.8984C192.924 42.1986 193.714 41.2301 194.251 39.9932C194.804 38.7562 195.081 37.332 195.081 35.7207C195.081 34.1094 194.804 32.6852 194.251 31.4482C193.714 30.2113 192.924 29.251 191.883 28.5674C190.841 27.8675 189.596 27.5176 188.147 27.5176ZM217.127 23.9043C220.187 23.9043 222.482 24.5879 224.012 25.9551C225.542 27.3223 226.307 29.3486 226.307 32.0342V41.751C226.307 43.0368 226.844 43.6797 227.918 43.6797H228.772C229.326 43.6797 229.716 43.8099 229.944 44.0703C230.188 44.3145 230.311 44.7376 230.311 45.3398C230.311 45.9421 230.188 46.3734 229.944 46.6338C229.716 46.8779 229.326 47 228.772 47H227.21C226.152 47 225.241 46.7396 224.476 46.2188C223.727 45.6816 223.239 44.9004 223.011 43.875C221.676 45.0469 220.228 45.9502 218.665 46.585C217.119 47.2197 215.475 47.5371 213.733 47.5371C212.09 47.5371 210.633 47.2604 209.363 46.707C208.11 46.1374 207.125 45.3154 206.409 44.2412C205.693 43.167 205.335 41.8893 205.335 40.4082C205.335 37.8366 206.255 35.9404 208.094 34.7197C209.933 33.4827 212.309 32.8643 215.223 32.8643C217.811 32.8643 220.285 33.2793 222.645 34.1094V32.0342C222.645 30.4554 222.197 29.2998 221.302 28.5674C220.423 27.8187 218.999 27.4443 217.029 27.4443C215.809 27.4443 214.539 27.6152 213.221 27.957C211.902 28.2988 210.649 28.7708 209.461 29.373C209.184 29.5195 208.932 29.5928 208.704 29.5928C208.167 29.5928 207.719 29.2021 207.361 28.4209C207.182 28.0303 207.093 27.7048 207.093 27.4443C207.093 26.8747 207.394 26.4352 207.996 26.126C209.363 25.4098 210.828 24.8646 212.391 24.4902C213.969 24.0996 215.548 23.9043 217.127 23.9043ZM215.247 36.3066C213.375 36.3066 211.894 36.6322 210.804 37.2832C209.729 37.918 209.192 38.9352 209.192 40.335C209.192 41.5231 209.599 42.4508 210.413 43.1182C211.243 43.7692 212.399 44.0947 213.88 44.0947C217.119 44.0947 220.04 42.752 222.645 40.0664V37.4053C221.538 37.0472 220.35 36.7786 219.08 36.5996C217.811 36.4043 216.533 36.3066 215.247 36.3066ZM247.645 14.9688C248.198 14.9688 248.589 15.099 248.816 15.3594C249.061 15.6035 249.183 16.0267 249.183 16.6289V43.6797H257.02C257.573 43.6797 257.964 43.8099 258.191 44.0703C258.436 44.3145 258.558 44.7376 258.558 45.3398C258.558 45.9421 258.436 46.3734 258.191 46.6338C257.964 46.8779 257.573 47 257.02 47H237.879C237.326 47 236.927 46.8779 236.683 46.6338C236.455 46.3734 236.341 45.9421 236.341 45.3398C236.341 44.7376 236.455 44.3145 236.683 44.0703C236.927 43.8099 237.326 43.6797 237.879 43.6797H245.521V18.2891H238.855C238.302 18.2891 237.903 18.167 237.659 17.9229C237.431 17.6624 237.317 17.2311 237.317 16.6289C237.317 16.0267 237.431 15.6035 237.659 15.3594C237.903 15.099 238.302 14.9688 238.855 14.9688H247.645ZM277.088 23.9043C280.148 23.9043 282.443 24.5879 283.973 25.9551C285.503 27.3223 286.268 29.3486 286.268 32.0342V41.751C286.268 43.0368 286.805 43.6797 287.879 43.6797H288.733C289.287 43.6797 289.677 43.8099 289.905 44.0703C290.149 44.3145 290.271 44.7376 290.271 45.3398C290.271 45.9421 290.149 46.3734 289.905 46.6338C289.677 46.8779 289.287 47 288.733 47H287.171C286.113 47 285.201 46.7396 284.437 46.2188C283.688 45.6816 283.2 44.9004 282.972 43.875C281.637 45.0469 280.188 45.9502 278.626 46.585C277.08 47.2197 275.436 47.5371 273.694 47.5371C272.05 47.5371 270.594 47.2604 269.324 46.707C268.071 46.1374 267.086 45.3154 266.37 44.2412C265.654 43.167 265.296 41.8893 265.296 40.4082C265.296 37.8366 266.215 35.9404 268.055 34.7197C269.894 33.4827 272.27 32.8643 275.184 32.8643C277.771 32.8643 280.245 33.2793 282.605 34.1094V32.0342C282.605 30.4554 282.158 29.2998 281.263 28.5674C280.384 27.8187 278.96 27.4443 276.99 27.4443C275.77 27.4443 274.5 27.6152 273.182 27.957C271.863 28.2988 270.61 28.7708 269.422 29.373C269.145 29.5195 268.893 29.5928 268.665 29.5928C268.128 29.5928 267.68 29.2021 267.322 28.4209C267.143 28.0303 267.054 27.7048 267.054 27.4443C267.054 26.8747 267.355 26.4352 267.957 26.126C269.324 25.4098 270.789 24.8646 272.352 24.4902C273.93 24.0996 275.509 23.9043 277.088 23.9043ZM275.208 36.3066C273.336 36.3066 271.855 36.6322 270.765 37.2832C269.69 37.918 269.153 38.9352 269.153 40.335C269.153 41.5231 269.56 42.4508 270.374 43.1182C271.204 43.7692 272.36 44.0947 273.841 44.0947C277.08 44.0947 280.001 42.752 282.605 40.0664V37.4053C281.499 37.0472 280.311 36.7786 279.041 36.5996C277.771 36.4043 276.494 36.3066 275.208 36.3066ZM306.971 39.6758C308.143 39.6758 308.981 39.7979 309.485 40.042C310.006 40.2699 310.267 40.6605 310.267 41.2139V45.7061C310.267 46.2594 310.006 46.6582 309.485 46.9023C308.981 47.1302 308.143 47.2441 306.971 47.2441C305.799 47.2441 304.952 47.1302 304.432 46.9023C303.927 46.6582 303.675 46.2594 303.675 45.7061V41.2139C303.675 40.6605 303.927 40.2699 304.432 40.042C304.952 39.7979 305.799 39.6758 306.971 39.6758ZM348.45 24.4414C349.004 24.4414 349.394 24.5716 349.622 24.832C349.866 25.0762 349.988 25.4993 349.988 26.1016C349.988 26.7038 349.866 27.1351 349.622 27.3955C349.394 27.6396 349.004 27.7617 348.45 27.7617H346.863L339.612 35.4033L347.449 43.6797H348.694C349.248 43.6797 349.638 43.8099 349.866 44.0703C350.11 44.3145 350.232 44.7376 350.232 45.3398C350.232 45.9421 350.11 46.3734 349.866 46.6338C349.638 46.8779 349.248 47 348.694 47H340.296C339.743 47 339.344 46.8779 339.1 46.6338C338.872 46.3734 338.758 45.9421 338.758 45.3398C338.758 44.7376 338.872 44.3145 339.1 44.0703C339.344 43.8099 339.743 43.6797 340.296 43.6797H342.64L336.78 37.3809L330.945 43.6797H332.874C333.427 43.6797 333.818 43.8099 334.046 44.0703C334.29 44.3145 334.412 44.7376 334.412 45.3398C334.412 45.9421 334.29 46.3734 334.046 46.6338C333.818 46.8779 333.427 47 332.874 47H325.208C324.655 47 324.256 46.8779 324.012 46.6338C323.784 46.3734 323.67 45.9421 323.67 45.3398C323.67 44.7376 323.784 44.3145 324.012 44.0703C324.256 43.8099 324.655 43.6797 325.208 43.6797H326.429L334.363 35.3545L327.186 27.7617H325.452C324.899 27.7617 324.5 27.6396 324.256 27.3955C324.028 27.1351 323.914 26.7038 323.914 26.1016C323.914 25.4993 324.028 25.0762 324.256 24.832C324.5 24.5716 324.899 24.4414 325.452 24.4414H333.851C334.404 24.4414 334.795 24.5716 335.022 24.832C335.267 25.0762 335.389 25.4993 335.389 26.1016C335.389 26.7038 335.267 27.1351 335.022 27.3955C334.795 27.6396 334.404 27.7617 333.851 27.7617H331.995L337.171 33.377L342.371 27.7617H341.028C340.475 27.7617 340.076 27.6396 339.832 27.3955C339.604 27.1351 339.49 26.7038 339.49 26.1016C339.49 25.4993 339.604 25.0762 339.832 24.832C340.076 24.5716 340.475 24.4414 341.028 24.4414H348.45ZM379.163 24.4414C379.716 24.4414 380.107 24.5716 380.335 24.832C380.579 25.0762 380.701 25.4993 380.701 26.1016C380.701 26.7038 380.579 27.1351 380.335 27.3955C380.107 27.6396 379.716 27.7617 379.163 27.7617H377.649L367.664 48.2207C366.606 50.3854 365.573 52.0863 364.563 53.3232C363.554 54.5602 362.415 55.4635 361.146 56.0332C359.892 56.6191 358.362 56.9447 356.556 57.0098C355.986 57.026 355.547 56.8796 355.237 56.5703C354.928 56.2773 354.773 55.7484 354.773 54.9834C354.773 53.9255 355.205 53.3721 356.067 53.3232C357.63 53.2419 358.867 52.9814 359.778 52.542C360.706 52.1025 361.552 51.3457 362.317 50.2715C363.099 49.2135 364.051 47.5534 365.174 45.291L356.238 27.7617H354.7C354.147 27.7617 353.748 27.6396 353.504 27.3955C353.276 27.1351 353.162 26.7038 353.162 26.1016C353.162 25.4993 353.276 25.0762 353.504 24.832C353.748 24.5716 354.147 24.4414 354.7 24.4414H363.343C363.896 24.4414 364.287 24.5716 364.515 24.832C364.759 25.0762 364.881 25.4993 364.881 26.1016C364.881 26.7038 364.759 27.1351 364.515 27.3955C364.287 27.6396 363.896 27.7617 363.343 27.7617H360.218L367.103 41.4824L373.67 27.7617H371.497C370.944 27.7617 370.545 27.6396 370.301 27.3955C370.073 27.1351 369.959 26.7038 369.959 26.1016C369.959 25.4993 370.073 25.0762 370.301 24.832C370.545 24.5716 370.944 24.4414 371.497 24.4414H379.163ZM405.774 24.4414C406.328 24.4414 406.718 24.5716 406.946 24.832C407.19 25.0762 407.312 25.4993 407.312 26.1016C407.312 26.5736 407.19 26.9479 406.946 27.2246L392.054 43.6797H403.895V39.4805C403.895 38.9108 404.033 38.5039 404.31 38.2598C404.586 38.0156 405.058 37.8936 405.726 37.8936C406.393 37.8936 406.865 38.0156 407.142 38.2598C407.418 38.5039 407.557 38.9108 407.557 39.4805V45.3398C407.557 45.9421 407.435 46.3734 407.19 46.6338C406.963 46.8779 406.572 47 406.019 47H387.806C387.252 47 386.854 46.8779 386.609 46.6338C386.382 46.3734 386.268 45.9421 386.268 45.3398C386.268 44.8516 386.382 44.4854 386.609 44.2412L401.526 27.7617H390.418V31.3994C390.418 31.9691 390.28 32.376 390.003 32.6201C389.726 32.8643 389.254 32.9863 388.587 32.9863C387.92 32.9863 387.448 32.8643 387.171 32.6201C386.894 32.376 386.756 31.9691 386.756 31.3994V26.1016C386.756 25.4993 386.87 25.0762 387.098 24.832C387.342 24.5716 387.741 24.4414 388.294 24.4414H405.774Z" fill="#FAEBD7"/>
<path d="M351.519 22.4414C352.072 22.4414 352.463 22.5716 352.69 22.832C352.935 23.0762 353.057 23.4993 353.057 24.1016C353.057 24.7038 352.935 25.1351 352.69 25.3955C352.463 25.6396 352.072 25.7617 351.519 25.7617H349.932L342.681 33.4033L350.518 41.6797H351.763C352.316 41.6797 352.707 41.8099 352.935 42.0703C353.179 42.3145 353.301 42.7376 353.301 43.3398C353.301 43.9421 353.179 44.3734 352.935 44.6338C352.707 44.8779 352.316 45 351.763 45H343.364C342.811 45 342.412 44.8779 342.168 44.6338C341.94 44.3734 341.826 43.9421 341.826 43.3398C341.826 42.7376 341.94 42.3145 342.168 42.0703C342.412 41.8099 342.811 41.6797 343.364 41.6797H345.708L339.849 35.3809L334.014 41.6797H335.942C336.496 41.6797 336.886 41.8099 337.114 42.0703C337.358 42.3145 337.48 42.7376 337.48 43.3398C337.48 43.9421 337.358 44.3734 337.114 44.6338C336.886 44.8779 336.496 45 335.942 45H328.276C327.723 45 327.324 44.8779 327.08 44.6338C326.852 44.3734 326.738 43.9421 326.738 43.3398C326.738 42.7376 326.852 42.3145 327.08 42.0703C327.324 41.8099 327.723 41.6797 328.276 41.6797H329.497L337.432 33.3545L330.254 25.7617H328.521C327.967 25.7617 327.568 25.6396 327.324 25.3955C327.096 25.1351 326.982 24.7038 326.982 24.1016C326.982 23.4993 327.096 23.0762 327.324 22.832C327.568 22.5716 327.967 22.4414 328.521 22.4414H336.919C337.472 22.4414 337.863 22.5716 338.091 22.832C338.335 23.0762 338.457 23.4993 338.457 24.1016C338.457 24.7038 338.335 25.1351 338.091 25.3955C337.863 25.6396 337.472 25.7617 336.919 25.7617H335.063L340.239 31.377L345.439 25.7617H344.097C343.543 25.7617 343.145 25.6396 342.9 25.3955C342.673 25.1351 342.559 24.7038 342.559 24.1016C342.559 23.4993 342.673 23.0762 342.9 22.832C343.145 22.5716 343.543 22.4414 344.097 22.4414H351.519ZM382.231 22.4414C382.785 22.4414 383.175 22.5716 383.403 22.832C383.647 23.0762 383.77 23.4993 383.77 24.1016C383.77 24.7038 383.647 25.1351 383.403 25.3955C383.175 25.6396 382.785 25.7617 382.231 25.7617H380.718L370.732 46.2207C369.674 48.3854 368.641 50.0863 367.632 51.3232C366.623 52.5602 365.483 53.4635 364.214 54.0332C362.961 54.6191 361.431 54.9447 359.624 55.0098C359.054 55.026 358.615 54.8796 358.306 54.5703C357.996 54.2773 357.842 53.7484 357.842 52.9834C357.842 51.9255 358.273 51.3721 359.136 51.3232C360.698 51.2419 361.935 50.9814 362.847 50.542C363.774 50.1025 364.621 49.3457 365.386 48.2715C366.167 47.2135 367.119 45.5534 368.242 43.291L359.307 25.7617H357.769C357.215 25.7617 356.816 25.6396 356.572 25.3955C356.344 25.1351 356.23 24.7038 356.23 24.1016C356.23 23.4993 356.344 23.0762 356.572 22.832C356.816 22.5716 357.215 22.4414 357.769 22.4414H366.411C366.965 22.4414 367.355 22.5716 367.583 22.832C367.827 23.0762 367.949 23.4993 367.949 24.1016C367.949 24.7038 367.827 25.1351 367.583 25.3955C367.355 25.6396 366.965 25.7617 366.411 25.7617H363.286L370.171 39.4824L376.738 25.7617H374.565C374.012 25.7617 373.613 25.6396 373.369 25.3955C373.141 25.1351 373.027 24.7038 373.027 24.1016C373.027 23.4993 373.141 23.0762 373.369 22.832C373.613 22.5716 374.012 22.4414 374.565 22.4414H382.231ZM408.843 22.4414C409.396 22.4414 409.787 22.5716 410.015 22.832C410.259 23.0762 410.381 23.4993 410.381 24.1016C410.381 24.5736 410.259 24.9479 410.015 25.2246L395.122 41.6797H406.963V37.4805C406.963 36.9108 407.101 36.5039 407.378 36.2598C407.655 36.0156 408.127 35.8936 408.794 35.8936C409.461 35.8936 409.933 36.0156 410.21 36.2598C410.487 36.5039 410.625 36.9108 410.625 37.4805V43.3398C410.625 43.9421 410.503 44.3734 410.259 44.6338C410.031 44.8779 409.64 45 409.087 45H390.874C390.321 45 389.922 44.8779 389.678 44.6338C389.45 44.3734 389.336 43.9421 389.336 43.3398C389.336 42.8516 389.45 42.4854 389.678 42.2412L404.595 25.7617H393.486V29.3994C393.486 29.9691 393.348 30.376 393.071 30.6201C392.795 30.8643 392.323 30.9863 391.655 30.9863C390.988 30.9863 390.516 30.8643 390.239 30.6201C389.963 30.376 389.824 29.9691 389.824 29.3994V24.1016C389.824 23.4993 389.938 23.0762 390.166 22.832C390.41 22.5716 390.809 22.4414 391.362 22.4414H408.843Z" fill="#B3A89A"/>
<path d="M356.519 16.4414C357.072 16.4414 357.463 16.5716 357.69 16.832C357.935 17.0762 358.057 17.4993 358.057 18.1016C358.057 18.7038 357.935 19.1351 357.69 19.3955C357.463 19.6396 357.072 19.7617 356.519 19.7617H354.932L347.681 27.4033L355.518 35.6797H356.763C357.316 35.6797 357.707 35.8099 357.935 36.0703C358.179 36.3145 358.301 36.7376 358.301 37.3398C358.301 37.9421 358.179 38.3734 357.935 38.6338C357.707 38.8779 357.316 39 356.763 39H348.364C347.811 39 347.412 38.8779 347.168 38.6338C346.94 38.3734 346.826 37.9421 346.826 37.3398C346.826 36.7376 346.94 36.3145 347.168 36.0703C347.412 35.8099 347.811 35.6797 348.364 35.6797H350.708L344.849 29.3809L339.014 35.6797H340.942C341.496 35.6797 341.886 35.8099 342.114 36.0703C342.358 36.3145 342.48 36.7376 342.48 37.3398C342.48 37.9421 342.358 38.3734 342.114 38.6338C341.886 38.8779 341.496 39 340.942 39H333.276C332.723 39 332.324 38.8779 332.08 38.6338C331.852 38.3734 331.738 37.9421 331.738 37.3398C331.738 36.7376 331.852 36.3145 332.08 36.0703C332.324 35.8099 332.723 35.6797 333.276 35.6797H334.497L342.432 27.3545L335.254 19.7617H333.521C332.967 19.7617 332.568 19.6396 332.324 19.3955C332.096 19.1351 331.982 18.7038 331.982 18.1016C331.982 17.4993 332.096 17.0762 332.324 16.832C332.568 16.5716 332.967 16.4414 333.521 16.4414H341.919C342.472 16.4414 342.863 16.5716 343.091 16.832C343.335 17.0762 343.457 17.4993 343.457 18.1016C343.457 18.7038 343.335 19.1351 343.091 19.3955C342.863 19.6396 342.472 19.7617 341.919 19.7617H340.063L345.239 25.377L350.439 19.7617H349.097C348.543 19.7617 348.145 19.6396 347.9 19.3955C347.673 19.1351 347.559 18.7038 347.559 18.1016C347.559 17.4993 347.673 17.0762 347.9 16.832C348.145 16.5716 348.543 16.4414 349.097 16.4414H356.519ZM387.231 16.4414C387.785 16.4414 388.175 16.5716 388.403 16.832C388.647 17.0762 388.77 17.4993 388.77 18.1016C388.77 18.7038 388.647 19.1351 388.403 19.3955C388.175 19.6396 387.785 19.7617 387.231 19.7617H385.718L375.732 40.2207C374.674 42.3854 373.641 44.0863 372.632 45.3232C371.623 46.5602 370.483 47.4635 369.214 48.0332C367.961 48.6191 366.431 48.9447 364.624 49.0098C364.054 49.026 363.615 48.8796 363.306 48.5703C362.996 48.2773 362.842 47.7484 362.842 46.9834C362.842 45.9255 363.273 45.3721 364.136 45.3232C365.698 45.2419 366.935 44.9814 367.847 44.542C368.774 44.1025 369.621 43.3457 370.386 42.2715C371.167 41.2135 372.119 39.5534 373.242 37.291L364.307 19.7617H362.769C362.215 19.7617 361.816 19.6396 361.572 19.3955C361.344 19.1351 361.23 18.7038 361.23 18.1016C361.23 17.4993 361.344 17.0762 361.572 16.832C361.816 16.5716 362.215 16.4414 362.769 16.4414H371.411C371.965 16.4414 372.355 16.5716 372.583 16.832C372.827 17.0762 372.949 17.4993 372.949 18.1016C372.949 18.7038 372.827 19.1351 372.583 19.3955C372.355 19.6396 371.965 19.7617 371.411 19.7617H368.286L375.171 33.4824L381.738 19.7617H379.565C379.012 19.7617 378.613 19.6396 378.369 19.3955C378.141 19.1351 378.027 18.7038 378.027 18.1016C378.027 17.4993 378.141 17.0762 378.369 16.832C378.613 16.5716 379.012 16.4414 379.565 16.4414H387.231ZM413.843 16.4414C414.396 16.4414 414.787 16.5716 415.015 16.832C415.259 17.0762 415.381 17.4993 415.381 18.1016C415.381 18.5736 415.259 18.9479 415.015 19.2246L400.122 35.6797H411.963V31.4805C411.963 30.9108 412.101 30.5039 412.378 30.2598C412.655 30.0156 413.127 29.8936 413.794 29.8936C414.461 29.8936 414.933 30.0156 415.21 30.2598C415.487 30.5039 415.625 30.9108 415.625 31.4805V37.3398C415.625 37.9421 415.503 38.3734 415.259 38.6338C415.031 38.8779 414.64 39 414.087 39H395.874C395.321 39 394.922 38.8779 394.678 38.6338C394.45 38.3734 394.336 37.9421 394.336 37.3398C394.336 36.8516 394.45 36.4854 394.678 36.2412L409.595 19.7617H398.486V23.3994C398.486 23.9691 398.348 24.376 398.071 24.6201C397.795 24.8643 397.323 24.9863 396.655 24.9863C395.988 24.9863 395.516 24.8643 395.239 24.6201C394.963 24.376 394.824 23.9691 394.824 23.3994V18.1016C394.824 17.4993 394.938 17.0762 395.166 16.832C395.41 16.5716 395.809 16.4414 396.362 16.4414H413.843Z" fill="#B3A89A"/>
<path d="M340.519 25.4414C341.072 25.4414 341.463 25.5716 341.69 25.832C341.935 26.0762 342.057 26.4993 342.057 27.1016C342.057 27.7038 341.935 28.1351 341.69 28.3955C341.463 28.6396 341.072 28.7617 340.519 28.7617H338.932L331.681 36.4033L339.518 44.6797H340.763C341.316 44.6797 341.707 44.8099 341.935 45.0703C342.179 45.3145 342.301 45.7376 342.301 46.3398C342.301 46.9421 342.179 47.3734 341.935 47.6338C341.707 47.8779 341.316 48 340.763 48H332.364C331.811 48 331.412 47.8779 331.168 47.6338C330.94 47.3734 330.826 46.9421 330.826 46.3398C330.826 45.7376 330.94 45.3145 331.168 45.0703C331.412 44.8099 331.811 44.6797 332.364 44.6797H334.708L328.849 38.3809L323.014 44.6797H324.942C325.496 44.6797 325.886 44.8099 326.114 45.0703C326.358 45.3145 326.48 45.7376 326.48 46.3398C326.48 46.9421 326.358 47.3734 326.114 47.6338C325.886 47.8779 325.496 48 324.942 48H317.276C316.723 48 316.324 47.8779 316.08 47.6338C315.852 47.3734 315.738 46.9421 315.738 46.3398C315.738 45.7376 315.852 45.3145 316.08 45.0703C316.324 44.8099 316.723 44.6797 317.276 44.6797H318.497L326.432 36.3545L319.254 28.7617H317.521C316.967 28.7617 316.568 28.6396 316.324 28.3955C316.096 28.1351 315.982 27.7038 315.982 27.1016C315.982 26.4993 316.096 26.0762 316.324 25.832C316.568 25.5716 316.967 25.4414 317.521 25.4414H325.919C326.472 25.4414 326.863 25.5716 327.091 25.832C327.335 26.0762 327.457 26.4993 327.457 27.1016C327.457 27.7038 327.335 28.1351 327.091 28.3955C326.863 28.6396 326.472 28.7617 325.919 28.7617H324.063L329.239 34.377L334.439 28.7617H333.097C332.543 28.7617 332.145 28.6396 331.9 28.3955C331.673 28.1351 331.559 27.7038 331.559 27.1016C331.559 26.4993 331.673 26.0762 331.9 25.832C332.145 25.5716 332.543 25.4414 333.097 25.4414H340.519ZM371.231 25.4414C371.785 25.4414 372.175 25.5716 372.403 25.832C372.647 26.0762 372.77 26.4993 372.77 27.1016C372.77 27.7038 372.647 28.1351 372.403 28.3955C372.175 28.6396 371.785 28.7617 371.231 28.7617H369.718L359.732 49.2207C358.674 51.3854 357.641 53.0863 356.632 54.3232C355.623 55.5602 354.483 56.4635 353.214 57.0332C351.961 57.6191 350.431 57.9447 348.624 58.0098C348.054 58.026 347.615 57.8796 347.306 57.5703C346.996 57.2773 346.842 56.7484 346.842 55.9834C346.842 54.9255 347.273 54.3721 348.136 54.3232C349.698 54.2419 350.935 53.9814 351.847 53.542C352.774 53.1025 353.621 52.3457 354.386 51.2715C355.167 50.2135 356.119 48.5534 357.242 46.291L348.307 28.7617H346.769C346.215 28.7617 345.816 28.6396 345.572 28.3955C345.344 28.1351 345.23 27.7038 345.23 27.1016C345.23 26.4993 345.344 26.0762 345.572 25.832C345.816 25.5716 346.215 25.4414 346.769 25.4414H355.411C355.965 25.4414 356.355 25.5716 356.583 25.832C356.827 26.0762 356.949 26.4993 356.949 27.1016C356.949 27.7038 356.827 28.1351 356.583 28.3955C356.355 28.6396 355.965 28.7617 355.411 28.7617H352.286L359.171 42.4824L365.738 28.7617H363.565C363.012 28.7617 362.613 28.6396 362.369 28.3955C362.141 28.1351 362.027 27.7038 362.027 27.1016C362.027 26.4993 362.141 26.0762 362.369 25.832C362.613 25.5716 363.012 25.4414 363.565 25.4414H371.231ZM397.843 25.4414C398.396 25.4414 398.787 25.5716 399.015 25.832C399.259 26.0762 399.381 26.4993 399.381 27.1016C399.381 27.5736 399.259 27.9479 399.015 28.2246L384.122 44.6797H395.963V40.4805C395.963 39.9108 396.101 39.5039 396.378 39.2598C396.655 39.0156 397.127 38.8936 397.794 38.8936C398.461 38.8936 398.933 39.0156 399.21 39.2598C399.487 39.5039 399.625 39.9108 399.625 40.4805V46.3398C399.625 46.9421 399.503 47.3734 399.259 47.6338C399.031 47.8779 398.64 48 398.087 48H379.874C379.321 48 378.922 47.8779 378.678 47.6338C378.45 47.3734 378.336 46.9421 378.336 46.3398C378.336 45.8516 378.45 45.4854 378.678 45.2412L393.595 28.7617H382.486V32.3994C382.486 32.9691 382.348 33.376 382.071 33.6201C381.795 33.8643 381.323 33.9863 380.655 33.9863C379.988 33.9863 379.516 33.8643 379.239 33.6201C378.963 33.376 378.824 32.9691 378.824 32.3994V27.1016C378.824 26.4993 378.938 26.0762 379.166 25.832C379.41 25.5716 379.809 25.4414 380.362 25.4414H397.843Z" fill="#B3A89A"/>
</svg>
